<?xml version="1.0" encoding="utf-8"?>
<!-- Generator: Adobe Illustrator 24.1.1, SVG Export Plug-In . SVG Version: 6.00 Build 0)  -->
<svg version="1.1" id="Layer_1" xmlns="http://www.w3.org/2000/svg" xmlns:xlink="http://www.w3.org/1999/xlink" x="0px" y="0px"
	 viewBox="0 0 512 512" style="enable-background:new 0 0 512 512;" xml:space="preserve">
<g>
	<path d="M256,224c53,0,96-43,96-96s-43-96-96-96s-96,43-96,96S203,224,256,224z M256,256c-70.7,0-128-57.3-128-128S185.3,0,256,0
		s128,57.3,128,128S326.7,256,256,256z"/>
	<path d="M96,512H64v-79.4c0-79.5,64.5-144,144-144c0.2,0,32.5,0.2,96.7,0.5c79.3,0.4,143.3,64.7,143.3,144V512h-32v-78.9
		c0-61.6-49.8-111.7-111.5-112l-96-0.5c-62.4,0-112.5,50.1-112.5,112V512z"/>
</g>
</svg>
